# xmcd
#
# Track frame offsets: 
#        182
#        11735
#        51552
#        64735
#        73840
#        90062
#        103017
#        113490
#        126200
#        139930
#        162920
#        182957
#        200845
#        216887
#        228972
#        264575
#        280755
#        301055
#        320265
#
# Disc length: 4487 seconds
#
# Revision: 2
# Processed by: cddbd v1.5.2PL0 Copyright (c) Steve Scherf et al.
# Submitted via: ExactAudioCopy v0.99pb5
#
DISCID=14118513
DTITLE=Various Artist - Rythm And Black
DYEAR=1993
DGENRE=Rhythmic Soul
TTITLE0=The Platters - Only You
TTITLE1=James Brown - It's A Man's, Man's, Man's World
TTITLE2=Ben E. King - Stand By Me
TTITLE3=Sam Cooke - Only Sixteen
TTITLE4=Ray Charles - Georgia On My Mind
TTITLE5=Sam and Dave - Soul Man
TTITLE6=Aretha Franklin - The Shoop Shoop Song
TTITLE7=Percy Sledge - When A Man Love's A Woman
TTITLE8=Sly and The Family Stone - Stand!
TTITLE9=Edwin Hawkins - Oh Happy Days
TTITLE10=Earth Wind and Fire - After The Love Has Gone
TTITLE11=Marvin Gaye - What's Going On
TTITLE12=Nina Simone - My Baby Just Cares  For Me
TTITLE13=Jackie Wilson - Reet Petite
TTITLE14=The Jacksons - Shake Your Body
TTITLE15=Aretha Franklin - Think
TTITLE16=Amii Stewart - Friends
TTITLE17=Keziah Jones - Rythm Is Love
TTITLE18=Shabba Ranks - Mr Loverman
EXTD=
EXTT0=
EXTT1=
EXTT2=
EXTT3=
EXTT4=
EXTT5=
EXTT6=
EXTT7=
EXTT8=
EXTT9=
EXTT10=
EXTT11=
EXTT12=
EXTT13=
EXTT14=
EXTT15=
EXTT16=
EXTT17=
EXTT18=
PLAYORDER=
